<svg id="Laag_1" data-name="Laag 1" xmlns="http://www.w3.org/2000/svg" viewBox="0 0 595.28 475.58"><title>Tekengebied 1</title><rect x="7.21" y="4.25" width="584.59" height="308.46" style="fill:none;stroke:#c54613;stroke-width:2.5864000000000003px"/><path d="M405.34,121c-16.51,0-32.19,29.26-37.62,51.41a14.07,14.07,0,0,0-.63,3.76,25.12,25.12,0,0,0,.63,4.18c2.93,13,14.42,24.45,26.34,24.45h.21c17.35,0,27.38-21.74,27.38-52C421.64,135.88,416,121,405.34,121Z" style="fill:#c54613"/><path d="M105.62,148.84c-13.79,0-20.9,13.59-20.9,29.68,0,14,5.64,22.57,15.47,22.57h.21c11.5,0,23-13,28.22-28.63a14.37,14.37,0,0,0,1-5,14.42,14.42,0,0,0-1.46-5C124.85,157,117.53,148.84,105.62,148.84Z" style="fill:#c54613"/><path d="M28.83,24.57V291H570.69V24.57ZM157.45,207.15c-2.3-.21-7.94-.21-13.58-.21-5.23,0-9.41,0-11.91.21-.84,0-1-.42-1-1-.21-2.72-.42-14.21-.42-19.86,0-1.67.21-4.81.21-6.69l-.63-.21c-.84,1.88-1.88,4-2.93,5.85-6.06,10.24-18.39,23.41-35.95,23.41-12.75,0-24.24-9.2-24.24-27,0-16.72,10.66-37.2,36.37-37.2a36.43,36.43,0,0,1,22.15,7.32,23,23,0,0,1,3.34,3.14h.84a115.94,115.94,0,0,0-1.88-15.47c-2.3-13.17-7.52-21.53-19-21.53-11.29,0-22.36,7.11-31.35,16.72-.21.21-.42.42-.63.42-.63,0-1.88-2.3-1.25-3.34,10-12.12,24.24-21.53,43.26-21.53,22.78,0,27.17,20.48,27.17,41.38,0,5.22-.42,17.77-.84,24.24-.21,7.31-.63,19.65-.63,23.83a2.6,2.6,0,0,0,2.09,2.93l10.45,2.3a1.83,1.83,0,0,1,1.25,1.88C158.29,206.94,158.08,207.15,157.45,207.15Zm176.61.21c-4.39-.21-10.66-.42-19.23-.42s-15.68.21-19.44.42c-.42,0-.42-.21-.42-.42,0-.84.42-1.88,1-2.09l8.78-2.09c1.25-.42,2.09-1.25,2.3-3.34.63-4.39.63-25.5.63-31.56,0-25.92-4.18-44.94-15.68-44.94-15.68,0-29.05,33.65-32.4,55.6A194.81,194.81,0,0,0,258,199.21c0,2.3.21,2.93,2.3,3.34l10.24,2.3a2,2,0,0,1,1,1.88c0,.42,0,.63-.42.63-4.81-.21-11.5-.42-20.06-.42-9,0-15.68.21-19.65.42-.63,0-.63-.21-.63-.42a2.1,2.1,0,0,1,1.25-2.09l8.57-2.09c1.67-.42,2.51-1,2.72-3.14.63-4.39.42-24.66.42-31.35,0-26.33-3.76-45.35-15.67-45.35-15.68,0-29.26,35.74-33.23,56.43a187.13,187.13,0,0,0-1.67,20.9c0,1.46,1,2.09,2.3,2.51l10.66,2.09a2.1,2.1,0,0,1,1.25,2.09c0,.21,0,.42-.63.42-5.64-.21-11.91-.42-20.9-.42-8.36,0-14.21.21-19,.42-.42,0-.42-.21-.42-.42,0-.84.42-1.88,1-2.09l9.2-2.3c1.46-.21,2.3-.84,2.3-2.51.21-6.48-.21-31.77-.21-42.85-.21-9.2-.63-30.93-.84-35.74-.21-1.88-.42-3.14-2.09-3.34H165.6c-.84,0-1.46-1-1.46-2.09,0-.42.21-.63.84-.84l29.68-4.81c1.46-.21,1.67.42,1.67,1.67,0,3.55-1.67,35.11-2.3,45.15,0,2.51-.21,5-.21,7.52h1c.63-2.3,1.46-4.81,2.09-6.69,5.43-15.26,19.44-47.86,42.22-47.86,15,0,19.86,21.32,20.06,44.1,0,1.46,0,4-.21,7.11h1a70.63,70.63,0,0,1,2.09-7.11c4.6-14,18.39-44.1,41-44.1,13,0,20.27,14.42,20.27,47,0,13.58-1.67,37.62-1.88,41.38,0,2.93.42,3.55,2.51,4l9.4,2.3a2.19,2.19,0,0,1,1,1.88C334.48,207.15,334.48,207.36,334.06,207.36Zm61.25,1c-13.38,0-22.16-6.27-29.89-14.63-.84-1-1.46-1-2.3.42l-6.9,13c-.21.42-.42.42-.63.42-1.25,0-3.34-.63-3.34-1.46-.21-19-.21-52.46-.42-74.2,0-14.63-.21-53.09-.42-57.27-.21-2.3-.84-2.93-2.09-2.93l-11.5-.42c-.83,0-1.46-1.25-1.46-2.09a.55.55,0,0,1,.63-.63L368.14,65c1.67-.21,1.88.21,1.88,1.67,0,2.09-1.88,62.07-2.3,80.26-.21,3.76-.42,8.57-.63,11.5l1,.21a73.06,73.06,0,0,1,2.51-7.31c6.48-15.47,22.15-41.17,44.31-41.17,16.51,0,24.45,16.93,24.45,35.74C439.41,178.52,423.73,208.4,395.31,208.4Zm149.44-93.84L540.36,116c-1.67.42-2.93,2.09-3.76,4.81-4.18,11.91-22.15,61-34.69,83.18-10.66,19.23-29.05,43.05-46.4,43.05-4.6,0-5.85-.84-6.06-1.67L444.63,226c-.21-.63,1.25-2.3,1.88-2.3a.77.77,0,0,1,.63.21l6.27,9.82a6.53,6.53,0,0,0,6.27,3.34c7.52,0,21.32-9.82,29.68-24.24.84-1.25.63-2.51-.21-4.6-7.52-16.93-26.34-67.72-33.65-89-.42-1.25-1-2.72-2.3-3.14l-5.85-1.25c-.84-.21-1.25-1.25-1.25-2.3,0-.42,0-.63.63-.63h41.59c.63,0,.63.21.63.63a2.57,2.57,0,0,1-1.46,2.3L477.86,116a2.28,2.28,0,0,0-1.88,3.14c4.81,16.93,15.88,54.76,21.74,71.69.42,1.46,1.25,3.76,1.88,6.06h.84c1-2.3,2.09-4.81,2.72-6.27,6.9-17.14,17.14-51,21.53-70.43.63-2.93-.63-3.76-2.3-4.18l-9.2-1.46c-.84,0-1-1.25-1-2.09,0-.42,0-.63.42-.63h32.61c.63,0,.63.21.63.63C545.79,113.31,545.37,114.35,544.75,114.56Z" style="fill:#c54613"/><path d="M50.78,336.94c.52-.08.6.22.6.6s-.67,24.14-.67,27.29c-.08,1.95-.23,19.49-.23,20.24s.15,1,.67,1.12L55,387a.88.88,0,0,1,.45.75.2.2,0,0,1-.23.22c-2.17-.07-4.5-.07-7.2-.07s-4.8,0-6.15.07c-.3,0-.45-.15-.45-.67,0-1-.07-7.27-.07-8.85,0-1.13.15-2.17.15-3.3l-.3-.08c-.3.75-.53,1.43-.82,2.17-2.55,5.17-6.9,11.25-14.1,11.25-6.22,0-10.72-5-10.72-13.72,0-12,6.15-21.59,17.24-21.59a11.19,11.19,0,0,1,6.9,2.17A6.81,6.81,0,0,1,41,356.59l.23-.08c-.15-1.27-.23-3-.3-3.9-.07-1.35-.23-8.62-.37-12.07-.07-.6-.38-1-1-1l-5.25-.3c-.3,0-.52-.6-.52-1,0-.08,0-.15.23-.15ZM31.66,383.13c3.9,0,7.5-5.4,9.6-13.94a11.7,11.7,0,0,0,.37-2.47,25.68,25.68,0,0,0-.3-3.3c-1-4.35-3.67-8.77-7.65-8.77-4.72,0-7.65,6-7.65,16.57,0,6.45,1.87,11.92,5.55,11.92Z" style="fill:#c54613"/><path d="M71.7,353.14a.55.55,0,0,1,.67.6c-.15,3-.52,13.35-.6,17-.07,3.37-.22,11.7-.22,14.55,0,.67.15.82.67,1L76,387c.15,0,.38.52.38.75s0,.22-.15.22c-1.8-.08-5.32-.15-9.37-.15s-7.65.07-9.15.15c-.23,0-.23-.08-.23-.15,0-.3.15-.75.38-.83l3.52-.82c.52-.15.82-.3.82-1,0-1.65-.22-10.65-.3-14.32-.08-3.07-.3-11-.37-12.9-.08-.6-.15-1.13-.83-1.13l-3.37-.15c-.22,0-.52-.52-.52-1,0-.08,0-.15.15-.15Zm-5.47-13.64a4.87,4.87,0,0,1,5.1,4.87,5.09,5.09,0,0,1-5.17,5.17c-2.62,0-5.47-1.87-5.47-4.95a5.29,5.29,0,0,1,5.47-5.1Z" style="fill:#c54613"/><path d="M112.26,368.13a2.26,2.26,0,0,1-1.5,2.1c-2.77.9-16.34.9-19.87.6a24.81,24.81,0,0,0,.38,5.1c1.27,5.62,5.47,9.15,9.82,9.15a24.11,24.11,0,0,0,5-.52,28.27,28.27,0,0,0,5.47-2c.15-.07.37.38.37.9,0,.22-.15.3-.3.45A39.75,39.75,0,0,1,103,387.7a20.25,20.25,0,0,1-6.6.75C87,388.45,80,384,80,373c0-10.12,7.35-19.87,18-19.87,10,0,14.25,8.62,14.25,14.92Zm-15.59-13.5c-2.92,0-5.92,4.42-5.77,14.85a36.55,36.55,0,0,0,9.67-.45c.6-.3,1-.82,1-2.4,0-4-.9-12.07-4.87-12.07Z" style="fill:#c54613"/><path d="M159.65,387c.23,0,.37.52.37.83,0,.07,0,.15-.15.15-2.55-.08-5.17-.15-9.52-.15s-7.5.07-9.37.15c-.15,0-.22-.08-.22-.15,0-.22.15-.83.37-.83l3.6-.82a1,1,0,0,0,.9-1c.15-1.57.38-7.42.38-10.87,0-6.52-.9-14.1-5.1-14.1-3.6,0-7.27,5.7-9.52,14.84a51.18,51.18,0,0,0-1.12,10.2c0,.67.23.9.67,1l3.67.82c.22,0,.37.52.37.83,0,.07-.07.15-.22.15-2.92-.08-5.32-.15-9.37-.15s-6.9.07-9.15.15c-.15,0-.15-.08-.15-.15,0-.3.15-.83.37-.9l3.82-.67c.45-.15.67-.37.67-1,0-2.25-.15-11-.15-14.32-.08-2.55-.3-10.95-.38-12.9-.07-.67-.07-1.13-.75-1.2l-3.3-.22c-.22,0-.45-.53-.45-.9,0-.15,0-.22.23-.22l14.54-2.32c.45-.07.6.15.6.6-.08,1-.45,10.57-.6,14.62,0,.75-.07,1.72-.15,2.55l.37.08c.23-.75.52-1.72.67-2.1,2.1-6.67,7.8-15.74,15.15-15.74,6,0,9.07,5.62,9.07,16,0,5.55-.53,12.52-.82,15.67-.08.75.07,1.13.82,1.28Z" style="fill:#c54613"/><path d="M163.92,364.83c0-5.77,7.65-11.7,18.52-11.7a18.77,18.77,0,0,1,6.82.9c.23.22.38.37.38.67l.67,7.65c0,.3-.67.75-1,.75-.15,0-.23,0-.3-.23-1.13-1.87-2.17-3.75-3.3-5.7a5.14,5.14,0,0,0-1.27-1.27,9.67,9.67,0,0,0-4.8-1c-3.67,0-6.52,2.32-6.52,5.32s2,4.57,7.57,6.6c7,2.4,10.72,4.87,10.72,9.67,0,7.12-7.8,12-19.94,12a25.65,25.65,0,0,1-6.75-.9.85.85,0,0,1-.52-.75l-.6-7.8c0-.37.75-.67,1-.67a.3.3,0,0,1,.3.15c1,1.87,2.17,4,3.37,5.92a4.37,4.37,0,0,0,1.35,1.27,10.37,10.37,0,0,0,4.72,1.13c4.5,0,8.1-2,8.1-5.47,0-3.22-2.17-4.8-8.25-6.82-7.42-2.32-10.27-5.1-10.27-9.6Z" style="fill:#c54613"/><path d="M211.61,357c-.37,4.8-.45,10.8-.45,15.67,0,9.52,2.25,12.9,7.5,12.9.67,0,1.65-.07,2.47-.15a18.49,18.49,0,0,0,4-1.05c.23-.07.3.3.3.82a.54.54,0,0,1-.3.52,31.91,31.91,0,0,1-7.65,2.62c-.82.07-1.95.15-3.6.15-8.25,0-13.35-3-13.42-13.87A157.17,157.17,0,0,1,201.71,357l-6.45.22a.27.27,0,0,1-.3-.3,5.07,5.07,0,0,1,.22-1.27,1.43,1.43,0,0,1,1.5-1.28H202c.23-1.27.6-4.27,1-6.07.38-1.42,1.12-2.4,3.52-3.45a50.32,50.32,0,0,1,5.85-2.25c.3,0,.45.22.37.67-.3,2.47-.9,8.47-1,11.25l13.12.08c.07,0,.15.07.15.22,0,.52-.3,1.2-.52,1.2Z" style="fill:#c54613"/><path d="M259.82,368.13a2.26,2.26,0,0,1-1.5,2.1c-2.77.9-16.34.9-19.87.6a24.81,24.81,0,0,0,.38,5.1c1.27,5.62,5.47,9.15,9.82,9.15a24.11,24.11,0,0,0,5-.52,28.27,28.27,0,0,0,5.47-2c.15-.07.37.38.37.9,0,.22-.15.3-.3.45a39.75,39.75,0,0,1-8.62,3.75,20.25,20.25,0,0,1-6.6.75c-9.45,0-16.42-4.42-16.42-15.45,0-10.12,7.35-19.87,18-19.87,10,0,14.25,8.62,14.25,14.92Zm-15.59-13.5c-2.92,0-5.92,4.42-5.77,14.85a36.55,36.55,0,0,0,9.67-.45c.6-.3,1-.82,1-2.4,0-4-.9-12.07-4.87-12.07Z" style="fill:#c54613"/><path d="M307.2,387c.23,0,.37.52.37.83,0,.07,0,.15-.15.15-2.55-.08-5.17-.15-9.52-.15s-7.5.07-9.37.15c-.15,0-.22-.08-.22-.15,0-.22.15-.83.37-.83l3.6-.82a1,1,0,0,0,.9-1c.15-1.57.38-7.42.38-10.87,0-6.52-.9-14.1-5.1-14.1-3.6,0-7.27,5.7-9.52,14.84a51.17,51.17,0,0,0-1.12,10.2c0,.67.23.9.67,1l3.67.82c.22,0,.37.52.37.83,0,.07-.07.15-.22.15-2.92-.08-5.32-.15-9.37-.15s-6.9.07-9.15.15c-.15,0-.15-.08-.15-.15,0-.3.15-.83.37-.9l3.82-.67c.45-.15.67-.37.67-1,0-2.25-.15-11-.15-14.32-.08-2.55-.3-10.95-.38-12.9-.07-.67-.07-1.13-.75-1.2l-3.3-.22c-.22,0-.45-.53-.45-.9,0-.15,0-.22.23-.22l14.54-2.32c.45-.07.6.15.6.6-.08,1-.45,10.57-.6,14.62,0,.75-.07,1.72-.15,2.55l.37.08c.23-.75.52-1.72.67-2.1,2.1-6.67,7.8-15.74,15.15-15.74,6,0,9.07,5.62,9.07,16,0,5.55-.53,12.52-.82,15.67-.08.75.07,1.13.82,1.28Z" style="fill:#c54613"/><path d="M311,373.38a19.65,19.65,0,0,1,7.57-15.52,22.16,22.16,0,0,1,14.4-4.72,17.23,17.23,0,0,1,6.45.9c.23.07.38.3.38.67l.45,8.1c0,.22-.67.6-.9.6s-.22,0-.3-.15c-1.12-2.17-2.32-4.57-3.37-6.37a3.82,3.82,0,0,0-1.35-1.57,4.3,4.3,0,0,0-2.63-.67c-2.7,0-5.17,2.17-7.2,6.52a25.87,25.87,0,0,0-2.25,11.1c0,8.77,4.57,12.9,10,12.9a18.26,18.26,0,0,0,3.82-.45A19.87,19.87,0,0,0,341,383c.15-.08.37.22.37.67,0,.3-.07.52-.3.6a38.3,38.3,0,0,1-7.5,3.45c-1.28.45-2.7.75-6.22.75-9.15,0-16.42-4-16.42-15Z" style="fill:#c54613"/><path d="M358.56,336.94c.45-.08.6.22.6.67s-.82,25.19-1,31.11c0,.67-.08,1.58-.15,2.47h.37a19,19,0,0,1,.75-2.25c2.1-5.85,7.8-15.82,15.52-15.82,6.07,0,9,6.07,9,15.82,0,6.6-.6,13-.82,15.59-.08,1.2.07,1.5.6,1.65l3.6.75c.15,0,.37.45.37.9,0,.07-.07.15-.22.15-1.35-.08-4.57-.15-8.92-.15s-7.87.07-9.45.15c-.22,0-.22-.08-.22-.15,0-.3.07-.9.3-.9l3.75-.67c.6-.08.75-.37.83-1,.22-2,.37-6.3.37-10.95,0-7.12-1-14.17-4.95-14.17-4.2,0-8.47,7.42-10.27,16.42a65.1,65.1,0,0,0-.67,8.77c0,.67.3.82.83.9l3.67.75c.15,0,.37.45.37.82,0,.15,0,.22-.22.22-1.58-.08-5.4-.15-9.6-.15s-7.5.07-8.7.15c-.22,0-.22-.08-.22-.22,0-.3.22-.82.37-.82l3.6-.83c.45-.07.52-.3.6-.9.08-2-.07-17.7-.07-22,0-3.3-.23-19.72-.3-22.49,0-.67-.15-1-.82-1l-4.57-.22c-.23,0-.45-.45-.45-.9,0-.08,0-.23.22-.23Z" style="fill:#c54613"/><path d="M423.49,368.13a2.25,2.25,0,0,1-1.5,2.1c-2.78.9-16.35.9-19.87.6a24.73,24.73,0,0,0,.37,5.1c1.27,5.62,5.47,9.15,9.82,9.15a24.09,24.09,0,0,0,5-.52,28.24,28.24,0,0,0,5.47-2c.15-.07.38.38.38.9,0,.22-.15.3-.3.45a39.76,39.76,0,0,1-8.62,3.75,20.24,20.24,0,0,1-6.6.75c-9.45,0-16.42-4.42-16.42-15.45,0-10.12,7.35-19.87,18-19.87,10,0,14.25,8.62,14.25,14.92Zm-15.59-13.5c-2.92,0-5.92,4.42-5.77,14.85a36.55,36.55,0,0,0,9.67-.45c.6-.3,1-.82,1-2.4,0-4-.9-12.07-4.87-12.07Z" style="fill:#c54613"/><path d="M462,353.36a.57.57,0,0,1,.37-.15c.67,0,2.17.52,2.17,1.35,0,3.52-.45,19.12-.52,24.82-.08,5.55-.37,18.22-.37,20,0,.45.3.67.75.75l3.37.6a1.06,1.06,0,0,1,.3.83c0,.15,0,.22-.15.22-.83-.07-4.87-.15-9.3-.15-4.12,0-8.17.08-10.27.15-.15,0-.15-.07-.15-.15,0-.37.15-.82.37-.9l4.87-.67a1.14,1.14,0,0,0,1-1.12c0-1.13-.15-13.42-.15-18.14,0-1,0-3.52.15-5.25l-.3-.07c-.3.82-.67,1.87-1,2.47-2.85,5.62-7.42,10.5-13.94,10.5s-10.42-5.77-10.42-13.87c0-12,6.22-21.44,17.84-21.44,4.5,0,7,1.2,9,2.78a16.87,16.87,0,0,1,1.8,1.57h.23Zm-14.77,1.2c-5.17,0-7.87,7-7.87,17,0,6.9,2.17,11.62,5.32,11.62,4.42,0,7.95-6.22,9.75-13.94a10.78,10.78,0,0,0,.37-2.47,26,26,0,0,0-.15-2.62c-.6-5.1-3.07-9.6-7.35-9.6Z" style="fill:#c54613"/><path d="M494.27,356.21c-.22,0-.45-.45-.45-.75s0-.3.22-.37l13.35-1.87c.37-.08.6.15.6.6-.07,2.78,0,14.25,0,17.24,0,3.52.23,11.92.38,13.87.07.67.22,1,.9,1.2l2.85.75c.23.08.38.67.38.9,0,.07,0,.15-.23.15-1.95-.07-4.35-.07-7.27-.07-2.55,0-4.95,0-6.45.07-.3,0-.45-.22-.45-.75,0-.9-.08-7.12,0-10v-2.32h-.38c-.3.83-.45,1.5-.67,2-3,7.35-7.42,11.62-13.72,11.62-5.4,0-9.82-4.42-9.82-15.45a136.24,136.24,0,0,1,1-15.29c.08-.9-.15-1.27-.82-1.27h-3.15c-.3,0-.6-.6-.6-1,0-.15.07-.22.3-.22l13.27-2c.45-.08.6.15.6.67-.07,2.4-.45,11.1-.45,14.7,0,10.27,1.42,14.77,4.95,14.77,4.5,0,8.25-7.72,9.37-17.84.22-2,.37-6.07.37-7.5,0-1-.22-1.42-.75-1.5Z" style="fill:#c54613"/><path d="M548.18,368.13a2.26,2.26,0,0,1-1.5,2.1c-2.78.9-16.35.9-19.87.6a24.8,24.8,0,0,0,.37,5.1c1.27,5.62,5.47,9.15,9.82,9.15a24.1,24.1,0,0,0,5-.52,28.23,28.23,0,0,0,5.47-2c.15-.07.38.38.38.9,0,.22-.15.3-.3.45A39.77,39.77,0,0,1,539,387.7a20.25,20.25,0,0,1-6.6.75c-9.45,0-16.42-4.42-16.42-15.45,0-10.12,7.35-19.87,18-19.87,10,0,14.25,8.62,14.25,14.92Zm-15.59-13.5c-2.92,0-5.92,4.42-5.77,14.85a36.55,36.55,0,0,0,9.67-.45c.6-.3,1-.82,1-2.4,0-4-.9-12.07-4.87-12.07Z" style="fill:#c54613"/><path d="M554,364.83c0-5.77,7.65-11.7,18.52-11.7a18.77,18.77,0,0,1,6.82.9c.22.22.37.37.37.67l.67,7.65c0,.3-.67.75-1,.75s-.23,0-.3-.23c-1.13-1.87-2.17-3.75-3.3-5.7a5.16,5.16,0,0,0-1.28-1.27,9.68,9.68,0,0,0-4.8-1c-3.67,0-6.52,2.32-6.52,5.32s2,4.57,7.57,6.6c7,2.4,10.72,4.87,10.72,9.67,0,7.12-7.8,12-19.94,12a25.65,25.65,0,0,1-6.75-.9.84.84,0,0,1-.52-.75l-.6-7.8c0-.37.75-.67,1-.67a.3.3,0,0,1,.3.15c1,1.87,2.17,4,3.37,5.92a4.35,4.35,0,0,0,1.35,1.27,10.37,10.37,0,0,0,4.72,1.13c4.5,0,8.1-2,8.1-5.47,0-3.22-2.17-4.8-8.25-6.82-7.42-2.32-10.27-5.1-10.27-9.6Z" style="fill:#c54613"/><path d="M76.69,429.44c-.37,4.8-.45,10.8-.45,15.67,0,9.52,2.25,12.9,7.5,12.9.67,0,1.65-.07,2.47-.15a18.49,18.49,0,0,0,4-1.05c.23-.07.3.3.3.82a.54.54,0,0,1-.3.52,31.91,31.91,0,0,1-7.65,2.62c-.82.07-1.95.15-3.6.15-8.25,0-13.35-3-13.42-13.87a157.17,157.17,0,0,1,1.27-17.62l-6.45.22a.27.27,0,0,1-.3-.3,5.07,5.07,0,0,1,.22-1.27,1.43,1.43,0,0,1,1.5-1.28h5.32c.23-1.27.6-4.27,1-6.07.38-1.42,1.12-2.4,3.52-3.45A50.31,50.31,0,0,1,77.51,415c.3,0,.45.22.37.67-.3,2.47-.9,8.47-1,11.25L90,427c.08,0,.15.07.15.22,0,.52-.3,1.2-.52,1.2Z" style="fill:#c54613"/><path d="M106.68,425.62a.55.55,0,0,1,.67.6c-.15,3-.52,13.35-.6,17-.07,3.37-.22,11.7-.22,14.55,0,.67.15.82.67,1l3.75.75c.15,0,.38.52.38.75s0,.22-.15.22c-1.8-.08-5.32-.15-9.37-.15s-7.65.07-9.15.15c-.23,0-.23-.08-.23-.15,0-.3.15-.75.38-.83l3.52-.82c.52-.15.82-.3.82-1,0-1.65-.22-10.65-.3-14.32-.07-3.07-.3-11-.38-12.9-.07-.6-.15-1.13-.82-1.13l-3.37-.15c-.23,0-.53-.52-.53-1,0-.08,0-.15.15-.15ZM101.21,412a4.87,4.87,0,0,1,5.1,4.87,5.09,5.09,0,0,1-5.17,5.17c-2.62,0-5.47-1.87-5.47-4.95a5.29,5.29,0,0,1,5.47-5.1Z" style="fill:#c54613"/><path d="M129.62,429.44c-.37,4.8-.45,10.8-.45,15.67,0,9.52,2.25,12.9,7.5,12.9.67,0,1.65-.07,2.47-.15a18.5,18.5,0,0,0,4-1.05c.22-.07.3.3.3.82a.54.54,0,0,1-.3.52,31.93,31.93,0,0,1-7.65,2.62c-.82.07-1.95.15-3.6.15-8.25,0-13.35-3-13.42-13.87a157.32,157.32,0,0,1,1.27-17.62l-6.45.22a.27.27,0,0,1-.3-.3,5.07,5.07,0,0,1,.22-1.27,1.43,1.43,0,0,1,1.5-1.28H120c.23-1.27.6-4.27,1-6.07.38-1.42,1.12-2.4,3.52-3.45a50.32,50.32,0,0,1,5.85-2.25c.3,0,.45.22.37.67-.3,2.47-.9,8.47-1,11.25l13.12.08c.08,0,.15.07.15.22,0,.52-.3,1.2-.53,1.2Z" style="fill:#c54613"/><path d="M159.91,443.54c.15-.83.3-1.5.38-1.95,1.72-7.12,5.62-16,12.45-16a4.18,4.18,0,0,1,2.4.6.68.68,0,0,1,.23.52l.52,10.42c0,.3-.67.67-.82.67s-.15,0-.23-.15c-.9-1.72-2.1-3.75-3-5.17a2.67,2.67,0,0,0-2.1-1.28c-4.12,0-7.65,7.5-9.67,17.7a75.52,75.52,0,0,0-.75,8.85c0,.67.3.82.83.9l5.85.82c.15,0,.38.52.38.75s0,.22-.15.22c-2.1-.08-6.45-.15-11.55-.15-4.42,0-8.32.07-9.22.15-.15,0-.15-.08-.15-.15,0-.37.15-.83.37-.83l3.75-.75a.86.86,0,0,0,.67-1c0-1.95-.15-11.25-.23-14.25-.08-3.22-.15-10.95-.3-13,0-.67-.15-1.13-.82-1.2l-3.37-.22c-.3,0-.45-.6-.45-.9,0-.15,0-.3.23-.3l14.55-2.17c.6-.15.75.15.75.67,0,1.12-.45,10.87-.75,15,0,.67-.07,1.57-.07,2.17Z" style="fill:#c54613"/><path d="M211,440.61a2.26,2.26,0,0,1-1.5,2.1c-2.77.9-16.34.9-19.87.6a24.79,24.79,0,0,0,.38,5.1c1.27,5.62,5.47,9.15,9.82,9.15a24.11,24.11,0,0,0,5-.52,28.27,28.27,0,0,0,5.47-2c.15-.07.37.38.37.9,0,.22-.15.3-.3.45a39.75,39.75,0,0,1-8.62,3.75,20.25,20.25,0,0,1-6.6.75c-9.45,0-16.42-4.42-16.42-15.45,0-10.12,7.35-19.87,18-19.87,10,0,14.25,8.62,14.25,14.92Zm-15.59-13.5c-2.92,0-5.92,4.42-5.77,14.85a36.55,36.55,0,0,0,9.67-.45c.6-.3,1-.82,1-2.4,0-4-.9-12.07-4.87-12.07Z" style="fill:#c54613"/><path d="M216.75,437.31c0-5.77,7.65-11.7,18.52-11.7a18.77,18.77,0,0,1,6.82.9c.23.22.38.37.38.67l.67,7.65c0,.3-.67.75-1,.75s-.23,0-.3-.23c-1.13-1.87-2.17-3.75-3.3-5.7a5.14,5.14,0,0,0-1.27-1.27,9.67,9.67,0,0,0-4.8-1c-3.67,0-6.52,2.32-6.52,5.32s2,4.57,7.57,6.6c7,2.4,10.72,4.87,10.72,9.67,0,7.12-7.8,12-19.94,12a25.65,25.65,0,0,1-6.75-.9.85.85,0,0,1-.52-.75l-.6-7.8c0-.37.75-.67,1-.67a.3.3,0,0,1,.3.15c1,1.87,2.17,4,3.37,5.92a4.37,4.37,0,0,0,1.35,1.27,10.37,10.37,0,0,0,4.72,1.13c4.5,0,8.1-2,8.1-5.47,0-3.22-2.17-4.8-8.25-6.82-7.42-2.32-10.27-5.1-10.27-9.6Z" style="fill:#c54613"/><path d="M264.58,437.31c0,.75-.3,1.87-.83,1.87-3.22.3-10.35,1-14.25,1.27-.15,0-.23-.15-.23-.37,0-1.13.3-3.37.9-3.37,5.1.15,10.65.3,14.17.3a.2.2,0,0,1,.23.22Z" style="fill:#c54613"/><path d="M270.13,437.31c0-5.77,7.65-11.7,18.52-11.7a18.77,18.77,0,0,1,6.82.9c.23.22.38.37.38.67l.67,7.65c0,.3-.67.75-1,.75-.15,0-.22,0-.3-.23-1.12-1.87-2.17-3.75-3.3-5.7a5.14,5.14,0,0,0-1.27-1.27,9.67,9.67,0,0,0-4.8-1c-3.67,0-6.52,2.32-6.52,5.32s2,4.57,7.57,6.6c7,2.4,10.72,4.87,10.72,9.67,0,7.12-7.8,12-19.94,12A25.65,25.65,0,0,1,271,460a.85.85,0,0,1-.52-.75l-.6-7.8c0-.37.75-.67,1-.67a.3.3,0,0,1,.3.15c1,1.87,2.17,4,3.37,5.92a4.37,4.37,0,0,0,1.35,1.27,10.37,10.37,0,0,0,4.72,1.13c4.5,0,8.1-2,8.1-5.47,0-3.22-2.17-4.8-8.25-6.82-7.42-2.32-10.27-5.1-10.27-9.6Z" style="fill:#c54613"/><path d="M335.43,440.61a2.26,2.26,0,0,1-1.5,2.1c-2.77.9-16.34.9-19.87.6a24.88,24.88,0,0,0,.37,5.1c1.28,5.62,5.47,9.15,9.82,9.15a24.11,24.11,0,0,0,5-.52,28.24,28.24,0,0,0,5.47-2c.15-.07.37.38.37.9,0,.22-.15.3-.3.45a39.75,39.75,0,0,1-8.62,3.75,20.25,20.25,0,0,1-6.6.75c-9.45,0-16.42-4.42-16.42-15.45,0-10.12,7.35-19.87,18-19.87,10,0,14.25,8.62,14.25,14.92Zm-15.59-13.5c-2.92,0-5.92,4.42-5.77,14.85a36.56,36.56,0,0,0,9.67-.45c.6-.3,1-.82,1-2.4,0-4-.9-12.07-4.87-12.07Z" style="fill:#c54613"/><path d="M353.88,443.54c.15-.83.3-1.5.37-1.95,1.72-7.12,5.62-16,12.45-16a4.18,4.18,0,0,1,2.4.6.68.68,0,0,1,.22.52l.52,10.42c0,.3-.67.67-.82.67s-.15,0-.23-.15c-.9-1.72-2.1-3.75-3-5.17a2.67,2.67,0,0,0-2.1-1.28c-4.12,0-7.65,7.5-9.67,17.7a75.51,75.51,0,0,0-.75,8.85c0,.67.3.82.82.9l5.85.82c.15,0,.37.52.37.75s0,.22-.15.22c-2.1-.08-6.45-.15-11.55-.15-4.42,0-8.32.07-9.22.15-.15,0-.15-.08-.15-.15,0-.37.15-.83.37-.83l3.75-.75a.86.86,0,0,0,.67-1c0-1.95-.15-11.25-.22-14.25-.08-3.22-.15-10.95-.3-13,0-.67-.15-1.13-.82-1.2l-3.37-.22c-.3,0-.45-.6-.45-.9,0-.15,0-.3.22-.3l14.55-2.17c.6-.15.75.15.75.67,0,1.12-.45,10.87-.75,15,0,.67-.08,1.57-.08,2.17Z" style="fill:#c54613"/><path d="M411.31,426.22c.15,0,.15.07.15.22s-.15.82-.45.9l-1.42.45a1.42,1.42,0,0,0-1.2,1c-2.17,5.4-10.8,25.64-12.9,30-.75,1.28-1.05,1.43-5.55,1.57h-3.07a.66.66,0,0,1-.75-.45c-2.55-5.77-8.55-22.72-11.1-31.12a1.22,1.22,0,0,0-.83-1l-2-.52c-.22-.08-.3-.38-.3-.9a.2.2,0,0,1,.22-.22h19.19c.22,0,.22.07.22.22,0,.37-.15.82-.37.9l-2.77.45c-.52.15-.67.45-.52,1,1,5.77,4.2,19.19,5.92,25.34.15.52.45,1.35.67,2.17h.38c.37-1,.67-1.8.9-2.4a204.81,204.81,0,0,0,6.22-24.89c.15-.75-.07-1.05-.67-1.2l-3.37-.52c-.23,0-.3-.6-.3-1,0-.08,0-.15.22-.15Z" style="fill:#c54613"/><path d="M427.5,425.62a.55.55,0,0,1,.67.6c-.15,3-.52,13.35-.6,17-.07,3.37-.22,11.7-.22,14.55,0,.67.15.82.67,1l3.75.75c.15,0,.37.52.37.75s0,.22-.15.22c-1.8-.08-5.32-.15-9.37-.15s-7.65.07-9.15.15c-.22,0-.22-.08-.22-.15,0-.3.15-.75.37-.83l3.52-.82c.52-.15.82-.3.82-1,0-1.65-.22-10.65-.3-14.32-.07-3.07-.3-11-.37-12.9-.07-.6-.15-1.13-.83-1.13l-3.37-.15c-.23,0-.52-.52-.52-1,0-.08,0-.15.15-.15ZM422,412a4.87,4.87,0,0,1,5.1,4.87A5.09,5.09,0,0,1,422,422c-2.62,0-5.47-1.87-5.47-4.95A5.29,5.29,0,0,1,422,412Z" style="fill:#c54613"/><path d="M435.83,445.86a19.65,19.65,0,0,1,7.57-15.52,22.16,22.16,0,0,1,14.4-4.72,17.24,17.24,0,0,1,6.45.9c.22.07.37.3.37.67l.45,8.1c0,.22-.67.6-.9.6s-.23,0-.3-.15c-1.13-2.17-2.32-4.57-3.37-6.37a3.82,3.82,0,0,0-1.35-1.57,4.3,4.3,0,0,0-2.62-.67c-2.7,0-5.17,2.17-7.2,6.52a25.88,25.88,0,0,0-2.25,11.1c0,8.77,4.57,12.9,10,12.9a18.27,18.27,0,0,0,3.82-.45,19.89,19.89,0,0,0,4.95-1.72c.15-.08.37.22.37.67,0,.3-.08.52-.3.6a38.22,38.22,0,0,1-7.5,3.45c-1.27.45-2.7.75-6.22.75-9.15,0-16.42-4-16.42-15Z" style="fill:#c54613"/><path d="M501.66,440.61a2.26,2.26,0,0,1-1.5,2.1c-2.78.9-16.35.9-19.87.6a24.79,24.79,0,0,0,.37,5.1c1.27,5.62,5.47,9.15,9.82,9.15a24.09,24.09,0,0,0,5-.52,28.24,28.24,0,0,0,5.47-2c.15-.07.38.38.38.9,0,.22-.15.3-.3.45a39.78,39.78,0,0,1-8.62,3.75,20.25,20.25,0,0,1-6.6.75c-9.45,0-16.42-4.42-16.42-15.45,0-10.12,7.35-19.87,18-19.87,10,0,14.25,8.62,14.25,14.92Zm-15.59-13.5c-2.92,0-5.92,4.42-5.77,14.85a36.55,36.55,0,0,0,9.67-.45c.6-.3,1-.82,1-2.4,0-4-.9-12.07-4.87-12.07Z" style="fill:#c54613"/><path d="M507.43,437.31c0-5.77,7.65-11.7,18.52-11.7a18.76,18.76,0,0,1,6.82.9c.22.22.37.37.37.67l.67,7.65c0,.3-.67.75-1,.75s-.23,0-.3-.23c-1.13-1.87-2.17-3.75-3.3-5.7a5.16,5.16,0,0,0-1.28-1.27,9.68,9.68,0,0,0-4.8-1c-3.67,0-6.52,2.32-6.52,5.32s2,4.57,7.57,6.6c7,2.4,10.72,4.87,10.72,9.67,0,7.12-7.8,12-19.94,12a25.65,25.65,0,0,1-6.75-.9.84.84,0,0,1-.52-.75l-.6-7.8c0-.37.75-.67,1-.67a.3.3,0,0,1,.3.15c1,1.87,2.17,4,3.37,5.92a4.35,4.35,0,0,0,1.35,1.27,10.37,10.37,0,0,0,4.72,1.13c4.5,0,8.1-2,8.1-5.47,0-3.22-2.17-4.8-8.25-6.82-7.42-2.32-10.27-5.1-10.27-9.6Z" style="fill:#c54613"/></svg>